<?xml version="1.0" encoding="utf-8"?>
<!-- Generator: Adobe Illustrator 25.0.0, SVG Export Plug-In . SVG Version: 6.00 Build 0)  -->
<svg version="1.1" id="Layer_1" xmlns="http://www.w3.org/2000/svg" xmlns:xlink="http://www.w3.org/1999/xlink" x="0px" y="0px"
	 viewBox="0 0 850.4 637.8" style="enable-background:new 0 0 850.4 637.8;" xml:space="preserve">
<style type="text/css">
	.st0{fill:#E6E6E6;}
	.st1{fill:#2F2E41;}
	.st2{fill:#3F3D56;}
	.st3{fill:#EE9600;}
	.st4{fill:#F9A825;}
	.st5{opacity:0.5;fill:#FF6584;enable-background:new    ;}
	.st6{fill:#A0616A;}
	.st7{fill:#B56700;}
	.st8{fill:#FFB9B9;}
</style>
<polygon class="st0" points="719.4,360.2 152.1,360.2 152.1,378.5 240.5,378.5 240.5,552.3 259.4,551.4 258.8,378.5 603.4,378.5 
	603.4,552.3 621.3,557 621.7,378.5 719.4,378.5 "/>
<rect x="153.2" y="305.4" class="st0" width="567.3" height="18.3"/>
<rect x="153.2" y="259.7" class="st0" width="567.3" height="18.3"/>
<rect x="153.2" y="213.9" class="st0" width="567.3" height="18.3"/>
<polygon class="st0" points="719.4,360.2 152.1,360.2 152.1,378.5 240.5,378.5 240.5,552.3 259.4,551.4 258.8,378.5 603.4,378.5 
	603.4,552.3 621.3,557 621.7,378.5 719.4,378.5 "/>
<rect x="153.2" y="305.4" class="st0" width="567.3" height="18.3"/>
<rect x="153.2" y="259.7" class="st0" width="567.3" height="18.3"/>
<rect x="153.2" y="213.9" class="st0" width="567.3" height="18.3"/>
<polygon class="st1" points="298.1,167.1 224,184 192.7,125 256.1,100.2 "/>
<rect x="346.6" y="208.5" class="st2" width="212.4" height="8.1"/>
<path class="st3" d="M521.1,181.4h-3.8c0.7-1.2,1.1-2.6,1.1-4.1v-13.5c0-4.5-3.6-8.1-8.1-8.1l0,0h-3.2c0.3-0.9,0.5-1.8,0.5-2.7
	v-13.5c0-4.5-3.6-8.1-8.1-8.1l0,0h-92c-4.5,0-8.1,3.6-8.1,8.1l0,0V153c0,0.9,0.2,1.8,0.5,2.7h-3.2c-4.5,0-8.1,3.6-8.1,8.1v0v13.5
	c0,1.4,0.4,2.8,1.1,4.1h-3.8c-4.5,0-8.1,3.6-8.1,8.1l0,0V203c0,4.5,3.6,8.1,8.1,8.1l0,0h135.3c4.5,0,8.1-3.6,8.1-8.1l0,0v-13.5
	C529.2,185,525.5,181.4,521.1,181.4L521.1,181.4z"/>
<path class="st0" d="M504.8,133.4c0-3.4-23-6.1-51.4-6.1S402,130,402,133.4c0,1.7,5.7,3.2,14.9,4.3v5.5c0,0.9,0.8,1.7,1.7,1.7h0.7
	c0.9,0,1.7-0.8,1.7-1.7v-5.1c2.1,0.2,4.4,0.4,6.8,0.6v4.5c0,0.9,0.8,1.7,1.7,1.7h0.7c0.9,0,1.7-0.8,1.7-1.7v-4.3
	c6.2,0.3,13.1,0.5,20.3,0.6c0,0.1,0,0.2,0,0.3v6.1c0,0.9,0.8,1.7,1.7,1.7h0.7c0.9,0,1.7-0.8,1.7-1.7v-6.1c0-0.1,0-0.2,0-0.3
	c6.2,0,12.2-0.2,17.6-0.5v5.6c0,0.9,0.8,1.7,1.7,1.7h0.7c0.9,0,1.7-0.8,1.7-1.7v-5.8c5.7-0.4,10.7-0.9,14.9-1.4v4.5
	c0,0.9,0.8,1.7,1.7,1.7h0.7c0.9,0,1.7-0.8,1.7-1.7v-5.2C501.8,135.7,504.8,134.6,504.8,133.4z"/>
<rect x="399.3" y="154.3" class="st2" width="108.2" height="2.7"/>
<rect x="389.8" y="180" class="st2" width="127.2" height="2.7"/>
<rect x="380.4" y="204.4" class="st2" width="147.5" height="2.7"/>
<rect x="450.7" y="109.7" class="st0" width="4.1" height="23"/>
<path class="st4" d="M458.5,106.8c0,4.6-2.6,4.7-5.7,4.7s-8.4-0.9-5.7-4.7c2.8-4,7.5-11.6,5.7-12
	C452.8,94.8,458.5,102.2,458.5,106.8z"/>
<path class="st5" d="M454.8,109.7c0,1.8-1,1.9-2.3,1.9s-3.3-0.4-2.3-1.9c1.1-1.6,3-4.6,2.3-4.8C452.5,104.9,454.8,107.8,454.8,109.7
	z"/>
<rect x="473.7" y="111.1" class="st0" width="4.1" height="23"/>
<path class="st4" d="M481.5,108.2c0,4.6-2.6,4.7-5.7,4.7s-8.4-0.9-5.7-4.7c2.8-4,7.5-11.6,5.7-12
	C475.8,96.2,481.5,103.6,481.5,108.2z"/>
<path class="st5" d="M477.8,111c0,1.8-1,1.9-2.3,1.9s-3.3-0.4-2.3-1.9c1.1-1.6,3-4.6,2.3-4.8C475.5,106.3,477.8,109.2,477.8,111z"/>
<rect x="429.1" y="111.1" class="st0" width="4.1" height="23"/>
<path class="st4" d="M436.9,108.2c0,4.6-2.6,4.7-5.7,4.7s-8.4-0.9-5.7-4.7c2.8-4,7.5-11.6,5.7-12
	C431.1,96.2,436.9,103.6,436.9,108.2z"/>
<path class="st5" d="M433.2,111c0,1.8-1,1.9-2.3,1.9s-3.3-0.4-2.3-1.9c1.1-1.6,3-4.6,2.3-4.8C430.9,106.3,433.2,109.2,433.2,111z"/>
<path class="st1" d="M680.5,183.7l-71.2-12.9c-5-19.7-11.8-40.6-0.8-58.5c3.2-13.5,17.7-17.3,32.3-20.7c14.7-3.3,30.3,1.9,39.2,14.1
	c6.3,8.6,8,17.3,5.4,28.1C692.5,144.4,689.1,170,680.5,183.7z"/>
<path class="st1" d="M573.9,591.9l-31-21.2l40.7-142.1l43-71L547.1,406l4.2,94.6l-40.1,20.3l-10.7-117.3
	c-1.4-14.9,6.1-29.3,19.1-36.8l65.6-37.6l5.2-54l72.4-11.1c28,36.1,42.9,69.2,30,96.1l-65.3,84.1L573.9,591.9z"/>
<path class="st1" d="M558.7,576.5c0,0-5.5-11.1-11.3-7.6s-21,19.6-21,19.6s-28.1,8-8.7,15.9s26.3,6.3,26.7,4.7s4.6-5.5,4.6-5.5
	l7.4,3.4l11.6-0.5c0,0,11.5-27.4,6.5-27.4S559.2,581.5,558.7,576.5z"/>
<path class="st1" d="M530.7,507.4c0,0-12.4-1.4-12.5,5.3s4.9,28.3,4.9,28.3s-8.6,27.9,8.6,16s19.6-18.7,18.5-19.8s-2.1-6.8-2.1-6.8
	l6.9-4.3l5.9-10c0,0-16.8-24.6-19.4-20.5S535.1,509.7,530.7,507.4z"/>
<ellipse transform="matrix(0.1891 -0.982 0.982 0.1891 389.81 726.5214)" class="st6" cx="634.8" cy="127.2" rx="26.8" ry="26.8"/>
<path class="st6" d="M650.1,214.4l-65.8-0.4c7.2-18.8,14.9-36.1,28.5-36.1c10.7-10,9.6-23.4,4.5-38l33.5,4.1
	c-1.6,9.7,0.7,17.6,9.1,22.9C651.3,183.3,646.6,199.3,650.1,214.4z"/>
<path class="st7" d="M684.4,296.6l-91.3,6.8l-6.9-42.8c-19.1-18.2-16.8-36.6,0.8-55l6.4-23.8l14.1-4.3l0,0c-4.4,6.8-2.5,16,4.4,20.4
	c3.3,2.1,7.3,2.9,11.1,2.1l5.1-1.1c3.9-0.8,7.2-3.1,9.4-6.4l18.5-28.7l9.7,1.2c2.2,0.3,4.1,1.9,4.5,4.2l9,42.3
	C667.9,228,684.5,274.1,684.4,296.6z"/>
<path class="st6" d="M603,344.3l9.2,16.6c3.5,6.3,1.2,14.3-5.1,17.8c-0.5,0.3-0.9,0.5-1.4,0.7l0,0c-6.7,2.7-14.4-0.5-17.1-7.2
	c-0.7-1.7-1-3.4-1-5.2l0.4-17.8L569,281l2-47l19.9,3.2l-0.4,43.6L603,344.3z"/>
<path class="st6" d="M656.1,330.3l-8.6,16.9c-3.3,6.5-0.7,14.3,5.8,17.6c0.5,0.2,1,0.4,1.5,0.6l0,0c6.8,2.5,14.3-1,16.8-7.8
	c0.6-1.7,0.9-3.5,0.8-5.3l-1.1-17.7l16.6-68.8l-3.7-46.9l-19.8,3.9l2,43.6L656.1,330.3z"/>
<path class="st7" d="M596.1,241.4l-30.5-7.3l11.2-37.5c2.4-8.2,9.2-14.3,17.6-16l7.3-1.5L596.1,241.4z"/>
<path class="st7" d="M656.4,231.3l0.6-23.6l5.7-38.5c0.4-2.6,2.6-4.5,5.2-4.5l0,0c1.1,0,2.1,0.3,3,0.9l25.3,59
	C691.6,235.3,662.4,218.5,656.4,231.3z"/>
<path class="st1" d="M359.7,586.5l27.8-25.2l-59.9-135.1l-52.3-64.4l85.5,37l8.9,94.2l42.5,14.6l-5.5-117.7
	c-0.7-15-10.1-28.2-24-33.8L312.5,328l-12.6-52.7l-73.2-1c-22.8,39.6-32.9,74.5-16.5,99.3l76.2,74.3L359.7,586.5z"/>
<path class="st1" d="M372.7,569.2c0,0,3.9-11.8,10.1-9.1s23.5,16.5,23.5,16.5s29,4.1,10.8,14.6s-25.2,9.8-25.8,8.4s-5.3-4.8-5.3-4.8
	l-6.8,4.4l-11.5,1.1c0,0-15.1-25.6-10.3-26.3S372.9,574.3,372.7,569.2z"/>
<path class="st1" d="M390.9,496.9c0,0,12-3.1,13.1,3.5s-1,28.7-1,28.7s12.4,26.5-6.3,17s-22-15.8-21.1-17.1s1.1-7,1.1-7l-7.4-3.3
	l-7.2-9.1c0,0,13.2-26.6,16.4-22.9S386.8,499.8,390.9,496.9z"/>
<circle class="st8" cx="235.5" cy="134.7" r="26.8"/>
<path class="st8" d="M232.4,223.2l65.2-9.4c-9.7-17.6-19.8-33.7-33.2-31.9c-12-8.4-12.7-21.9-9.7-37.1l-32.6,8.7
	c2.9,9.4,1.8,17.6-5.9,23.9C226.9,192.5,233.8,207.7,232.4,223.2z"/>
<path class="st3" d="M227.5,280.3c23.2,30.1,46.9,42.1,72.4-1L302,260c16.4-20.7,11.6-38.5-8.4-54.4L284,183l-14.5-2.3l0,0
	c5.3,6.2,4.7,15.5-1.5,20.9c-3,2.6-6.8,3.8-10.7,3.6l-5.2-0.4c-3.9-0.3-7.6-2.1-10.2-5.1l-22.3-25.9l-9.4,2.5
	c-2.2,0.6-3.8,2.5-3.9,4.7l-3,43.1C216.6,239,224.3,258,227.5,280.3z"/>
<path class="st8" d="M217.1,261.9l-51.3-10.4l34.1-31.7l-13-23.4l-55.1,58.6c-2.9,3.2-2.5,8.2,0.7,11c1.2,1.1,2.7,1.7,4.3,1.9
	l74.6,8.3l3.1,13.5c1.4,6.2,7.5,10,13.7,8.6c1.3-0.3,2.5-0.8,3.6-1.5l0,0c5.3-3.4,6.9-10.5,3.5-15.8c-0.4-0.7-0.9-1.3-1.5-1.8
	L217.1,261.9z"/>
<path class="st8" d="M296.8,345.3L290,363c-2.6,6.8,0.8,14.3,7.5,16.9c0.5,0.2,1,0.3,1.5,0.5l0,0c7,1.8,14.1-2.5,15.9-9.5
	c0.4-1.7,0.5-3.5,0.2-5.3l-2.9-17.5l9.5-70.1l-8.5-46.3l-19.3,5.9l6.4,43.1L296.8,345.3z"/>
<path class="st3" d="M289.6,242.5l29.2-11.4l-16.3-35.6c-3.5-7.8-11.1-12.9-19.6-13.4l-7.5-0.5L289.6,242.5z"/>
<path class="st3" d="M193.4,227.9l31.1-10.5l-11-37.3c-0.7-2.5-3.2-4.1-5.8-3.8l0,0c-1.1,0.1-2,0.6-2.8,1.3l-31.8,28.2
	C179.3,215.8,185.8,216.1,193.4,227.9z"/>
<path class="st1" d="M253.4,91.1c0,0,16.4,3.1,20.2,23.6c0.6,3.5,0.7,7,0.3,10.5c-0.4,3.9,0.2,12.3,8.7,22.1
	c5.6,6.4,10.8,13,15.6,20l0,0l-17.2,4.6l-7.7-28.4c-3.7-13.8-9.4-26.9-17-39.1l-0.2-0.3c0,0-5.7,15.2-21,17.3l4.7-6.2
	c0,0-17.9,10.3-28,13.5c-3.5,1.1-5.5,4.8-4.4,8.3c0.4,1.3,1.2,2.4,2.2,3.2c0.1,0.1,0.1,0.1,0.2,0.2c7.4,5.7,22.6,19.1,16.6,32.2
	s1,15.4,1,15.4l-12.9-4.9l-5.9-2.5l0.6,4.4l-28.8,0.6c0,0-7.8,0,6-20.8c0,0,3.3-7.8,0.6-13.7c-2.2-4.5-3.3-9.5-3.2-14.5
	C185,115.5,193.8,72.9,253.4,91.1z"/>
<path class="st1" d="M611.1,106.1l24.8,15.8l2.3-4.5c15,10.8,11.8,38.5,4.5,69.9c0,0,26.2,9.6,29.3,0c5.5-17.1,1.1-57.5,1.1-57.5
	l-9-23.7l-14.7-7.9l-12.4-1.1C637.1,97.1,625.8,91.4,611.1,106.1z"/>
<ellipse class="st6" cx="649.5" cy="136.5" rx="3.4" ry="4.5"/>
<path class="st3" d="M675.9,104.7l-4.7-10.3l-3.7-8.2l-5.4-11.9l-3.7-8.2l-5-11.2c-0.3-0.6-0.9-0.8-1.5-0.6
	c-0.2,0.1-0.3,0.2-0.4,0.4l-5.2,7.2l-4,5.6l-5.8,8.1l-4,5.6l-5.8,8.1l-4,5.6l-3,4.2c-0.1,0.2-0.2,0.3-0.2,0.5c0,0.2,0,0.4,0.1,0.6
	c0.2,0.4,0.5,0.6,0.9,0.7l54.4,5.4c0.3,0,0.7-0.1,0.9-0.3c0,0,0.1-0.1,0.1-0.1c0.1-0.2,0.2-0.4,0.2-0.5
	C676,105.1,676,104.9,675.9,104.7z"/>
<polygon class="st0" points="662.1,74.3 642.2,67.5 646.2,61.9 658.4,66.1 "/>
<polygon class="st0" points="671.2,94.4 632.4,81.3 636.4,75.6 667.5,86.2 "/>
<path class="st0" d="M675.7,106c-0.2,0.3-0.6,0.4-0.9,0.3l-26.5-2.6L622.5,95l4-5.6L675.7,106z"/>
<circle class="st3" cx="652.9" cy="49.8" r="9"/>
<path class="st3" d="M258.4,93.1l-5.7-9.8l-4.5-7.8l-6.5-11.3l-4.5-7.8l-6.1-10.6c-0.3-0.5-1-0.7-1.6-0.4c-0.2,0.1-0.3,0.2-0.4,0.4
	l-4.5,7.7l-3.4,6l-5,8.6l-3.4,6l-5,8.6l-3.4,6l-2.6,4.4c-0.1,0.2-0.2,0.4-0.2,0.6c0,0.2,0.1,0.4,0.1,0.6c0.2,0.4,0.6,0.6,1,0.6h54.7
	c0.3,0,0.7-0.2,0.9-0.4c0,0,0.1-0.1,0.1-0.1c0.1-0.2,0.1-0.4,0.1-0.6C258.6,93.5,258.5,93.3,258.4,93.1z"/>
<polygon class="st0" points="241.7,64.2 221.2,59.5 224.7,53.5 237.2,56.4 "/>
<polygon class="st0" points="252.7,83.3 212.8,74.1 216.2,68.1 248.2,75.5 "/>
<path class="st0" d="M258.3,94.4c-0.2,0.3-0.5,0.4-0.9,0.4h-26.6l-26.5-6.1l3.4-6L258.3,94.4z"/>
<circle class="st3" cx="230.1" cy="40.7" r="9"/>
</svg>
