<?xml version="1.0" encoding="utf-8"?>
<!-- Generator: Adobe Illustrator 25.0.0, SVG Export Plug-In . SVG Version: 6.00 Build 0)  -->
<svg version="1.1" id="Layer_1" xmlns="http://www.w3.org/2000/svg" xmlns:xlink="http://www.w3.org/1999/xlink" x="0px" y="0px"
	 viewBox="0 0 850.4 637.8" style="enable-background:new 0 0 850.4 637.8;" xml:space="preserve">
<style type="text/css">
	.st0{fill:url(#SVGID_1_);}
	.st1{fill:#EE9600;}
	.st2{opacity:0.1;enable-background:new    ;}
	.st3{opacity:0.1;fill:#FFFFFF;enable-background:new    ;}
	.st4{fill:url(#SVGID_2_);}
	.st5{fill:#FFB9B9;}
	.st6{opacity:5.000000e-02;enable-background:new    ;}
	.st7{fill:#4C4C78;}
	.st8{fill:#CBCDDA;}
	.st9{fill:#B96B6B;}
	.st10{fill:#535461;}
	.st11{fill:none;stroke:#535461;stroke-width:2;stroke-miterlimit:10;}
	.st12{fill:none;stroke:#FFE4C0;stroke-width:4;stroke-miterlimit:10;}
</style>
<linearGradient id="SVGID_1_" gradientUnits="userSpaceOnUse" x1="455.463" y1="215.9924" x2="455.463" y2="552.3701" gradientTransform="matrix(1 0 0 -1 -67.69 754.2653)">
	<stop  offset="0" style="stop-color:#808080;stop-opacity:0.25"/>
	<stop  offset="0.54" style="stop-color:#808080;stop-opacity:0.12"/>
	<stop  offset="1" style="stop-color:#808080;stop-opacity:0.1"/>
</linearGradient>
<path class="st0" d="M781.3,346.6l-1,0.1l0.3-0.8l-1.2,0.5l1.2-3.2c0,0-4,1.6-11.4,4.2C587.7,355.9,208,201.9,208,201.9L-2.3,230.8
	c-1.2-1.1-2.4-2.4-3.5-3.6l0.9,3.8c-0.3-0.4-0.6-0.7-0.9-1.1l0.3,1.3h-0.3l0.5,0.7l24.1,97.6c0,0,428.7,236.2,686.6,206.2L778.9,350
	L781.3,346.6z"/>
<path class="st1" d="M214.6,208.1c0,0,382.6,155.1,552.2,139.3L653.7,515.7L244.9,388.2L45,297.5l93.3-63.1L214.6,208.1z"/>
<path class="st2" d="M214.6,208.1c0,0,382.6,155.1,552.2,139.3L653.7,515.7L244.9,388.2L45,297.5l93.3-63.1L214.6,208.1z"/>
<polygon class="st3" points="220.7,254.8 322.6,277.8 114.8,314.6 66.2,271.2 "/>
<polygon class="st3" points="244.8,348.8 365.1,304.7 449.9,333 301.3,388.2 "/>
<polygon class="st3" points="410.5,398.7 542.6,362.6 660.3,394.8 535.4,436.9 "/>
<polygon class="st1" points="8.8,236.3 214.6,208.1 214.6,258 42.3,283 "/>
<polygon class="st3" points="10.1,239 214.6,208.1 214.6,258 42.3,283 "/>
<linearGradient id="SVGID_2_" gradientUnits="userSpaceOnUse" x1="473.9038" y1="300.6077" x2="473.9038" y2="748.7703" gradientTransform="matrix(1 0 0 -1 -67.69 754.2653)">
	<stop  offset="0" style="stop-color:#808080;stop-opacity:0.25"/>
	<stop  offset="0.54" style="stop-color:#808080;stop-opacity:0.12"/>
	<stop  offset="1" style="stop-color:#808080;stop-opacity:0.1"/>
</linearGradient>
<path class="st4" d="M515.5,445.1c-12.3-12.1-22-26.5-27.1-42.9c-3.9-12.6-7.5-25-7.5-29c0-7-9.7-33.3-21.7-45.9
	c-0.4-0.4-0.8-0.9-1.2-1.2c-2.1-8.3-6.2-29.1,1-42c1.8-3.2,3.2-6.5,4.4-9.9c4.3-13.2,11-25.6,19.6-36.5c1.7-2.1,3.3-4.4,4.6-6.7
	c3,0.5,4.8-0.3,4.4-3.3c0-0.1,0-0.2,0-0.3c1.4-0.3,2.1-1.3,1.9-3.3c-1.8-14.6,5.5-60.1,5.5-60.1c7-20.5,10-42.2,9.1-63.8
	c-1.8-34.6-38.5-41.9-38.5-41.9l-3,3c-2.5-1.5-5.2-3.2-8-5c1.1-0.5,2-1.4,2.5-2.5c3.2-6.6,3.3-15.6,3.8-22.8
	c0.3-2.3,0.2-4.6-0.3-6.9c-0.6-1.9-1.5-3.8-2.8-5.3c-5.7-7.6-14.5-12.2-24-12.6c-3-0.1-6.1,0.2-9.1,0.2c-5.6,0-11.2-1.1-16.8-0.6
	c-5.6,0.5-11.5,2.9-13.9,7.9c-1.5,3.1-1.6,6.9-3.4,9.8c-2.1,3.4-6.2,5.2-8.6,8.4c-1.3,1.8-2,3.9-2,6.1c0,0.7,0.1,1.4,0.4,2.1
	c0.6,0.8,1.3,1.5,2.1,2c2.8,2.5,3.4,6.7,1.6,9.9c3.9,0.7,6.9,3.7,7.8,7.5c0,0.6,0.3,1.2,0.7,1.7c0.4,0.3,0.8,0.5,1.2,0.5
	c3.6,0.6,7.2-1.1,9.9-3.5c0.2,0.4,0.4,0.8,0.7,1.2c6.7,10.9,20.3,15.3,32.1,10.3c0.5,0.6,1,1.3,1.5,2c2,2.8,3.7,5.9,5,9.1l-2.8,2.8
	c-2.5,3.9-4.7,7.9-6.7,12.1c-4.6,8.7-7.9,18.1-10,27.7c-6.7,6.6-16.9,18.4-18.2,29.4c0,0-47.7,23.7-60.5,10.9
	c-12.8-12.7-29.3,9.1-25.7,12.7c3.7,3.6,14.7,10.9,27.5,3.7h51.4c7.8-1,15.3-3.7,22.1-7.7c-0.9,2.5-2,5-3.3,7.6
	c-1.9,3.7-4,7.4-5.9,10.7c-1.1,0.9-2.1,1.7-3.2,2.5c-6.6,2.7-14.8,6.1-23.4,9.8c-4.7,1-9.2,2.9-13.2,5.7
	c-19.8,8.6-37.8,17-37.2,18.7c-1.3,0.9-2,1.5-1.8,1.9s0.3,0.8,0.6,1.4c-1.4,5.2-1.7,15.8,1.2,36.8c7.4,52.8-9.2,61.9-9.2,61.9
	s-12.8,16.4-27.5,14.6c-14.7-1.8-1.8,12.7,11.1,10.9c8.7-1.2,27.3-2.5,38.6-3.1c3.8-0.2,6.7-3.5,6.5-7.3c0-0.4-0.1-0.9-0.2-1.3
	c-2.1-8-2.4-16.5-0.8-24.6c2.8-13.7,9.7-39.8,12.1-54.2v-0.2c3.7-3.7,10.5-8.8,19-7.6c4.4,0.6,12.3-3.5,20.7-9.1
	c-4.4,25.2-7.8,52.2-4.2,61.9c7.4,20,14.7,29.1,14.7,29.1s3.5,0.2,8.5,0.1l2.4,3.7l33.2,50.9c0,0,29.3,41.9,1.8,47.3
	c0,0-22,5.5-12.8,12.7c0,0,64.2,1.8,66-3.7C518.1,448.3,517.1,446.7,515.5,445.1z"/>
<path class="st5" d="M475.3,69.1c0,0-24.9,49.9-26.7,24.9c-0.5-7.4-3.1-14.5-7.5-20.6c-4.6-6.3-10.6-11.5-17.5-15.1
	c0,0,14.3-26.7,12.5-19.6c-0.9,3.7,9.3,11.5,19.6,18.3C465.5,63.6,475.3,69.1,475.3,69.1z"/>
<path class="st5" d="M357.6,315.1c-1.5,8-1.3,16.2,0.8,24.1c1,3.6-1.2,7.3-4.8,8.2c-0.4,0.1-0.9,0.2-1.3,0.2
	c-10.9,0.7-29.1,1.9-37.5,3.1c-12.5,1.8-24.9-12.5-10.7-10.7c14.3,1.8,26.7-14.3,26.7-14.3s16-8.9,8.9-60.6c-2.8-20.6-2.6-31-1.2-36
	c0.3-1.3,0.8-2.5,1.7-3.5l0,0c0.4-0.4,0.9-0.7,1.4-0.9c1.3-0.1,2.5,0.3,3.4,1.2c0,0,23.2,21.4,24.9,26.7c0.4,1.3,0.1,4.7-0.7,9.3
	C367,276.1,360.3,301.6,357.6,315.1z"/>
<path class="st6" d="M357.6,315.1c-1.5,8-1.3,16.2,0.8,24.1c1,3.6-1.2,7.3-4.8,8.2c-0.4,0.1-0.9,0.2-1.3,0.2
	c-10.9,0.7-29.1,1.9-37.5,3.1c-12.5,1.8-24.9-12.5-10.7-10.7c14.3,1.8,26.7-14.3,26.7-14.3s16-8.9,8.9-60.6c-2.8-20.6-2.6-31-1.2-36
	c0.3-1.3,0.8-2.5,1.7-3.5l0,0c0.4-0.4,0.9-0.7,1.4-0.9c1.3-0.1,2.5,0.3,3.4,1.2c0,0,23.2,21.4,24.9,26.7c0.4,1.3,0.1,4.7-0.7,9.3
	C367,276.1,360.3,301.6,357.6,315.1z"/>
<path class="st5" d="M514.5,443.4c-1.8,5.3-64.2,3.6-64.2,3.6c-8.9-7.1,12.5-12.5,12.5-12.5c26.7-5.3-1.8-46.3-1.8-46.3l-32.3-49.9
	l-7-10.8c0,0,8.9-12.5,24.9-10.7c3.7,0.4,7.5,2.9,11,6.7c11.7,12.4,21.1,38.1,21.1,45c0,3.9,3.4,16,7.3,28.4
	c5,16.1,14.5,30.1,26.4,42C514,440.5,514.9,442,514.5,443.4z"/>
<path class="st2" d="M369.4,262c-1.7,1.5-3.3,3.1-4.7,4.9c-13.1-1.6-23.2-30.5-26.1-37.8c-0.2-0.6-0.4-1.1-0.6-1.4
	c-0.1-0.3,0.6-1.1,2.2-2.1l0,0l1.4-0.9c1.3-0.1,2.5,0.3,3.4,1.2c0,0,23.2,21.4,24.9,26.7C370.6,254,370.2,257.4,369.4,262z"/>
<path class="st7" d="M425.4,186.8c0,0-87.3,35.6-85.5,39.2c1.8,3.6,12.5,37.4,26.7,39.2c0,0,8.9-12.5,21.4-10.7
	c12.5,1.8,53.5-35.6,53.5-35.6l28.5-21.4L425.4,186.8z"/>
<path class="st6" d="M425.4,186.8c0,0-87.3,35.6-85.5,39.2c1.8,3.6,12.5,37.4,26.7,39.2c0,0,8.9-12.5,21.4-10.7
	c12.5,1.8,53.5-35.6,53.5-35.6l28.5-21.4L425.4,186.8z"/>
<path class="st2" d="M459.2,329.3c0,7.4-18.9,8.8-30.5,9l-7-10.8c0,0,8.9-12.5,24.9-10.7c3.7,0.4,7.5,2.9,11,6.7
	C458.5,327.1,459.2,329.3,459.2,329.3z"/>
<path class="st7" d="M418.2,195.7c0,0-21.4,90.9-14.3,110.5c7.1,19.6,14.3,28.5,14.3,28.5s39.2,1.8,39.2-8.9c0,0-8.9-28.5,0-44.6
	c1.7-3.1,3.2-6.3,4.3-9.7c4.2-13,10.6-25.1,19-35.8c4.3-5.4,7.6-11.4,7-16.9C486,204.6,418.2,195.7,418.2,195.7z"/>
<path class="st5" d="M432.5,119c0,0-21.4,17.9-23.2,33.8c0,0-46.3,23.2-58.8,10.7c-12.5-12.5-28.5,9-24.9,12.5
	c3.6,3.5,14.3,10.7,26.7,3.6h49.9c0,0,33.9-3.6,35.6-30.3S432.5,119,432.5,119z"/>
<path class="st6" d="M432.5,119c0,0-21.4,17.9-23.2,33.8c0,0-46.3,23.2-58.8,10.7c-12.5-12.5-28.5,9-24.9,12.5
	c3.6,3.5,14.3,10.7,26.7,3.6h49.9c0,0,33.9-3.6,35.6-30.3S432.5,119,432.5,119z"/>
<path class="st2" d="M451.2,55.8C450.9,56.9,451.7,54.7,451.2,55.8c-2.6,5.9-4.2,15.3-10.1,17.7c-4.6-6.3-10.6-11.5-17.5-15.1
	c0,0,14.3-26.7,12.5-19.6C435.1,42.5,441,49,451.2,55.8z"/>
<path class="st5" d="M454.8,48.6c0,13.8-11.2,24.9-24.9,24.9s-24.9-11.2-24.9-24.9s11.2-24.9,24.9-24.9
	c13.7-0.1,24.9,10.9,24.9,24.6C454.8,48.4,454.8,48.5,454.8,48.6z"/>
<path class="st2" d="M441.4,88.7l24.9-24.9c0,0,35.6,7.1,37.4,41c0.9,21.2-2.1,42.3-8.9,62.4c0,0-7.1,44.6-5.3,58.8
	c1.8,14.3-46.3-21.4-46.3-21.4s-39.2,7.1-37.4,1.8c1.8-5.4,23.2-35.6,19.6-46.3c-1.5-4.6-1.1-14.8-0.1-24.9
	C427,118.6,432.5,102.7,441.4,88.7L441.4,88.7z"/>
<path class="st8" d="M496.6,163.6c0,0-7.1,44.5-5.3,58.8C493.2,236.7,445,201,445,201s-6.1,1.1-13.5,2.1c-11.1,1.5-25,2.9-23.9-0.4
	c0.3-0.8,0.6-1.5,1-2.2c4.7-8.8,21.8-34.5,18.6-44.2c-1.5-4.6-1.1-14.8-0.1-24.9c1.7-16.5,7.2-32.4,16.1-46.3l24.9-24.9
	c0,0,35.6,7.1,37.4,41C506.5,122.3,503.5,143.5,496.6,163.6z"/>
<path class="st2" d="M454.8,48.6c0,3.5-0.7,6.9-2.1,10c-2.1-1.7-4-3.8-5.4-6.1c-2.1-3.3-4.4-6.5-6.9-9.5c-0.5-0.8-1.3-1.4-2.2-1.7
	c-1.6-0.5-3.3,1-3.8,2.7c-0.3,1.7-0.3,3.4,0,5.1c0.3,1.7-0.2,3.5-1.3,4.8c-2.1,2-5.6,0.6-8-1c-2.4-1.6-5.5-3.4-8-2.1
	c-1,0.6-1.8,1.4-2.4,2.4c-1.8,2.9-3.9,5.6-6.2,8.2c-7.1-11.8-3.3-27.1,8.5-34.2c11.8-7.1,27.1-3.3,34.2,8.5
	C453.5,39.7,454.8,44.1,454.8,48.6L454.8,48.6z"/>
<path class="st9" d="M463.5,33.5c0.3-2.3,0.2-4.5-0.3-6.8c-0.6-1.9-1.5-3.7-2.7-5.2c-5.5-7.4-14.1-11.9-23.3-12.4
	c-3-0.1-5.9,0.2-8.9,0.2c-5.4,0-10.9-1.1-16.3-0.6c-5.4,0.5-11.1,2.9-13.5,7.7c-1.5,3.1-1.5,6.8-3.3,9.7c-2.1,3.4-6.1,5.1-8.3,8.3
	c-1.3,1.8-1.9,3.8-1.9,6c0,0.7,0.1,1.4,0.4,2c0.5,0.8,1.2,1.4,2,1.9c2.7,2.5,3.3,6.5,1.5,9.7c3.8,0.7,6.8,3.6,7.6,7.4
	c0,0.6,0.3,1.2,0.6,1.7c0.4,0.3,0.8,0.5,1.2,0.5c3.6,0.6,7.2-1.1,9.8-3.6s4.5-5.6,6.6-8.6c0.6-1,1.4-1.8,2.3-2.4
	c2.6-1.4,5.6,0.5,8,2.1c2.4,1.6,5.9,3,8,1c1.1-1.3,1.6-3.1,1.3-4.8c-0.3-1.7-0.3-3.4,0-5.1c0.5-1.7,2.1-3.2,3.8-2.7
	c0.9,0.3,1.6,0.9,2.1,1.7c2.5,3,4.8,6.2,7,9.5c2.3,3.6,9.2,12,12.6,5C462.9,49.3,463.1,40.5,463.5,33.5z"/>
<path class="st2" d="M426.3,155.6c0,0,26.7-1.8,33.9,3.6c7.1,5.3,35.6,3.6,35.6,3.6"/>
<path class="st6" d="M486,145.8c0,0-8.9,17.8-8.9,23.2c0,5.4-7.1,12.5-7.1,12.5s-20.1,11.1-38.4,21.7c-11.1,1.5-25,2.9-23.9-0.4
	c0.3-0.8,0.6-1.5,1-2.2c19-11.6,45.3-44.2,45.3-44.2c0-16,8.9-44.6,8.9-44.6s21.4-10.7,28.5,0S486,145.8,486,145.8z"/>
<path class="st2" d="M8.8,232.4l23.7,96c0,0,412.9,227.5,661.4,198.5l72.3-182.8c0,0-178.2,72-367.4,38.9c-7.2-1.3-14.4-3-21.5-5.1
	C320.8,361,46.5,277.2,8.8,232.4z"/>
<path class="st1" d="M8.8,235l23.7,96c0,0,412.9,227.5,661.4,198.5l72.3-182.8c0,0-178.2,72-367.4,38.9c-7.2-1.3-14.4-3-21.5-5.1
	C320.8,363.7,46.5,279.8,8.8,235z"/>
<rect x="275.1" y="-51.9" transform="matrix(0.6444 -0.7647 0.7647 0.6444 8.3416 256.2376)" class="st10" width="9.2" height="342.1"/>
<path class="st5" d="M459.2,108.3c0,0-8.9,28.6-8.9,44.5c0,0-37.4,46.3-55.3,48.1c-17.8,1.8-28.5,12.5-21.4,16
	c7.1,3.6,16,8.9,26.7,0c10.7-8.9,65.9-39.2,65.9-39.2s7.1-7.1,7.1-12.5c0-5.3,8.9-23.2,8.9-23.2s12.5-23.2,5.3-33.9
	C480.6,97.6,459.2,108.3,459.2,108.3z"/>
<path class="st2" d="M480.6,79.8c0,0-32.1-3.6-26.7,42.8c0,0,21.4-12.5,39.2,0C493.1,122.6,500.2,88.7,480.6,79.8z"/>
<path class="st8" d="M480.6,76.3c0,0-32.1-3.6-26.7,42.8c0,0,21.4-12.5,39.2,0C493.1,119,500.2,85.2,480.6,76.3z"/>
<line class="st11" x1="156.7" y1="17.1" x2="146.2" y2="545.3"/>
<path class="st12" d="M122.3,550.3c0,0-32.1,19.3-11.8,62.1"/>
<path class="st12" d="M137.3,557.8c0,0-32.1,19.3-11.8,62.1"/>
<path class="st12" d="M171.2,554.1c0,0,32.1,19.3,11.8,62.1"/>
<path class="st12" d="M159.4,564.8c0,0,32.1,19.3,11.8,62.1"/>
</svg>
